<svg width="48" height="49" viewBox="0 0 48 49" fill="none" xmlns="http://www.w3.org/2000/svg">
<path d="M42 27.1765C36.281 29.489 30.1688 30.674 24 30.6665C17.634 30.6665 11.56 29.4265 6 27.1765M24 24.6665H24.02M32 12.6665V8.6665C32 7.60564 31.5786 6.58822 30.8284 5.83808C30.0783 5.08793 29.0609 4.6665 28 4.6665H20C18.9391 4.6665 17.9217 5.08793 17.1716 5.83808C16.4214 6.58822 16 7.60564 16 8.6665V12.6665H32ZM10 40.6665H38C39.0609 40.6665 40.0783 40.2451 40.8284 39.4949C41.5786 38.7448 42 37.7274 42 36.6665V16.6665C42 15.6056 41.5786 14.5882 40.8284 13.8381C40.0783 13.0879 39.0609 12.6665 38 12.6665H10C8.93913 12.6665 7.92172 13.0879 7.17157 13.8381C6.42143 14.5882 6 15.6056 6 16.6665V36.6665C6 37.7274 6.42143 38.7448 7.17157 39.4949C7.92172 40.2451 8.93913 40.6665 10 40.6665Z" stroke="#4640DE" stroke-width="3" stroke-linecap="round" stroke-linejoin="round"/>
</svg>
