<svg width="32" height="33" viewBox="0 0 32 33" fill="none" xmlns="http://www.w3.org/2000/svg">
<circle opacity="0.1" cx="16" cy="16.6665" r="16" fill="white"/>
<path d="M22.3341 15.0265C22.6209 16.1185 22.6209 17.2105 22.334 18.3025C22.047 19.3947 21.4957 20.3488 20.6796 21.1654C19.8636 21.982 18.9099 22.534 17.8186 22.8211C16.7274 23.1083 15.6362 23.1083 14.5449 22.8212C13.4534 22.534 12.4998 21.9821 11.6838 21.1656C10.8678 20.349 10.3165 19.3947 10.0294 18.3026C9.74248 17.2106 9.74248 16.1187 10.0294 15.0266C10.3164 13.9345 10.8679 12.9802 11.6839 12.1636C12.4999 11.347 13.4536 10.7951 14.5449 10.5079C15.636 10.2207 16.7273 10.2209 17.8186 10.508C18.9098 10.7952 19.8634 11.3472 20.6794 12.1637C21.4955 12.9803 22.0471 13.9346 22.3341 15.0265ZM20.0236 20.5091C20.9918 19.5402 21.517 18.3739 21.599 17.0104L21.4234 16.9812C21.353 16.9694 21.2008 16.9636 20.9666 16.9635C20.7324 16.9635 20.4931 16.9801 20.2492 17.0133C20.005 17.0466 19.6967 17.1149 19.3237 17.2185C18.9508 17.322 18.5789 17.4577 18.208 17.6258C18.5868 18.9034 18.8523 20.1302 19.0046 21.3062C19.3872 21.0717 19.7269 20.806 20.0236 20.5091ZM15.5553 22.0622C16.4024 22.1599 17.2223 22.0662 18.0149 21.7809C17.8548 20.6518 17.5931 19.4367 17.2301 18.1356C15.7308 19.0108 14.3916 20.0383 13.2126 21.2183C13.9271 21.6831 14.708 21.9645 15.5553 22.0622ZM11.2123 18.8651C11.4797 19.4766 11.8556 20.0246 12.3398 20.5092C12.3945 20.5639 12.4375 20.6029 12.4686 20.6264C13.8821 19.2119 15.3774 18.0788 16.9549 17.2271C16.8378 16.8599 16.7245 16.5395 16.6152 16.2659C16.5916 16.274 16.5576 16.2904 16.5127 16.3158C16.4677 16.3413 16.4356 16.3599 16.4159 16.3717L16.1231 16.5123C15.92 16.6061 15.632 16.7067 15.2593 16.8142C14.8863 16.9214 14.4735 17.0182 14.0205 17.1042C13.5676 17.1901 13.0463 17.2252 12.4567 17.2095C11.8672 17.1939 11.3011 17.11 10.7584 16.9576C10.7935 17.6179 10.945 18.2538 11.2123 18.8651ZM12.3398 12.8199C11.4261 13.7342 10.903 14.8439 10.7702 16.1488L10.7936 15.9964C11.2309 16.1606 11.7209 16.2485 12.2636 16.2601C12.8063 16.2718 13.2856 16.2397 13.7015 16.1635C14.1172 16.0872 14.5447 15.9798 14.9842 15.8412C15.4233 15.7025 15.7161 15.6011 15.8625 15.5364C16.0089 15.4719 16.1251 15.4202 16.2111 15.3811L16.2286 15.3754L16.2404 15.3636C15.6195 13.9767 14.9207 12.7301 14.1437 11.6245C13.4564 11.9057 12.8553 12.3042 12.3398 12.8199ZM17.3385 11.3517C16.6025 11.1935 15.8712 11.1847 15.1452 11.3253C15.883 12.3842 16.5489 13.5505 17.1422 14.8242C18.0404 14.1679 18.7821 13.3122 19.3678 12.2574C18.7509 11.812 18.0743 11.51 17.3385 11.3517ZM20.0177 12.9313C19.9864 12.9781 19.9464 13.0359 19.8976 13.1042C19.8488 13.1725 19.7892 13.2556 19.7189 13.3533C19.6487 13.4509 19.5675 13.5575 19.4759 13.6727C19.3841 13.788 19.2846 13.909 19.1771 14.0361C19.0698 14.1631 18.9526 14.2959 18.8258 14.4346C18.6987 14.5734 18.5671 14.7111 18.4304 14.8478C18.2938 14.9845 18.1463 15.1242 17.9883 15.2668C17.8303 15.4095 17.6711 15.5411 17.5111 15.6623C17.5188 15.6936 17.5364 15.7405 17.5638 15.803C17.5911 15.8655 17.6125 15.9125 17.6284 15.9435C17.7181 16.182 17.8177 16.4536 17.9268 16.7584C18.3056 16.5982 18.6883 16.4672 19.075 16.3655C19.4615 16.2641 19.7834 16.1957 20.0411 16.1605C20.299 16.1254 20.5557 16.1049 20.8113 16.099C21.0671 16.0931 21.2387 16.0951 21.3267 16.1048C21.4147 16.1146 21.4996 16.1253 21.5815 16.137L21.5933 16.1371C21.4683 14.8712 20.959 13.7791 20.0646 12.861L20.0177 12.9313Z" fill="white"/>
</svg>
