<svg width="48" height="49" viewBox="0 0 48 49" fill="none" xmlns="http://www.w3.org/2000/svg">
<path d="M34 18.6665V14.6665C34 13.6056 33.5786 12.5882 32.8284 11.8381C32.0783 11.0879 31.0609 10.6665 30 10.6665H10C8.93913 10.6665 7.92172 11.0879 7.17157 11.8381C6.42143 12.5882 6 13.6056 6 14.6665V26.6665C6 27.7274 6.42143 28.7448 7.17157 29.4949C7.92172 30.2451 8.93913 30.6665 10 30.6665H14M18 38.6665H38C39.0609 38.6665 40.0783 38.2451 40.8284 37.4949C41.5786 36.7448 42 35.7274 42 34.6665V22.6665C42 21.6056 41.5786 20.5882 40.8284 19.8381C40.0783 19.0879 39.0609 18.6665 38 18.6665H18C16.9391 18.6665 15.9217 19.0879 15.1716 19.8381C14.4214 20.5882 14 21.6056 14 22.6665V34.6665C14 35.7274 14.4214 36.7448 15.1716 37.4949C15.9217 38.2451 16.9391 38.6665 18 38.6665ZM32 28.6665C32 29.7274 31.5786 30.7448 30.8284 31.4949C30.0783 32.2451 29.0609 32.6665 28 32.6665C26.9391 32.6665 25.9217 32.2451 25.1716 31.4949C24.4214 30.7448 24 29.7274 24 28.6665C24 27.6056 24.4214 26.5882 25.1716 25.8381C25.9217 25.0879 26.9391 24.6665 28 24.6665C29.0609 24.6665 30.0783 25.0879 30.8284 25.8381C31.5786 26.5882 32 27.6056 32 28.6665Z" stroke="#4640DE" stroke-width="3" stroke-linecap="round" stroke-linejoin="round"/>
</svg>
