<svg width="48" height="49" viewBox="0 0 48 49" fill="none" xmlns="http://www.w3.org/2000/svg">
<path fill-rule="evenodd" clip-rule="evenodd" d="M24 10.6665C22.9391 10.6665 21.9217 11.0879 21.1716 11.8381C20.4214 12.5882 20 13.6056 20 14.6665C20 15.7274 20.4214 16.7448 21.1716 17.4949C21.9217 18.2451 22.9391 18.6665 24 18.6665C25.0609 18.6665 26.0783 18.2451 26.8284 17.4949C27.5786 16.7448 28 15.7274 28 14.6665C28 13.6056 27.5786 12.5882 26.8284 11.8381C26.0783 11.0879 25.0609 10.6665 24 10.6665ZM18.3431 9.00965C19.8434 7.50936 21.8783 6.6665 24 6.6665C26.1217 6.6665 28.1566 7.50936 29.6569 9.00965C31.1571 10.5099 32 12.5448 32 14.6665C32 16.7882 31.1571 18.8231 29.6569 20.3234C28.1566 21.8237 26.1217 22.6665 24 22.6665C21.8783 22.6665 19.8434 21.8237 18.3431 20.3234C16.8429 18.8231 16 16.7882 16 14.6665C16 12.5448 16.8429 10.5099 18.3431 9.00965ZM10 18.6665C9.46957 18.6665 8.96086 18.8772 8.58579 19.2523C8.21071 19.6274 8 20.1361 8 20.6665C8 21.1969 8.21071 21.7056 8.58579 22.0807C8.96086 22.4558 9.46957 22.6665 10 22.6665C10.5304 22.6665 11.0391 22.4558 11.4142 22.0807C11.7893 21.7056 12 21.1969 12 20.6665C12 20.1361 11.7893 19.6274 11.4142 19.2523C11.0391 18.8772 10.5304 18.6665 10 18.6665ZM5.75736 16.4239C6.88258 15.2986 8.4087 14.6665 10 14.6665C11.5913 14.6665 13.1174 15.2986 14.2426 16.4239C15.3679 17.5491 16 19.0752 16 20.6665C16 22.2578 15.3679 23.7839 14.2426 24.9091C13.1174 26.0344 11.5913 26.6665 10 26.6665C8.4087 26.6665 6.88258 26.0344 5.75736 24.9091C4.63214 23.7839 4 22.2578 4 20.6665C4 19.0752 4.63214 17.5491 5.75736 16.4239ZM38 18.6665C37.4696 18.6665 36.9609 18.8772 36.5858 19.2523C36.2107 19.6274 36 20.1361 36 20.6665C36 21.1969 36.2107 21.7056 36.5858 22.0807C36.9609 22.4558 37.4696 22.6665 38 22.6665C38.5304 22.6665 39.0391 22.4558 39.4142 22.0807C39.7893 21.7056 40 21.1969 40 20.6665C40 20.1361 39.7893 19.6274 39.4142 19.2523C39.0391 18.8772 38.5304 18.6665 38 18.6665ZM33.7574 16.4239C34.8826 15.2986 36.4087 14.6665 38 14.6665C39.5913 14.6665 41.1174 15.2986 42.2426 16.4239C43.3679 17.5491 44 19.0752 44 20.6665C44 22.2578 43.3679 23.7839 42.2426 24.9091C41.1174 26.0344 39.5913 26.6665 38 26.6665C36.4087 26.6665 34.8826 26.0344 33.7574 24.9091C32.6321 23.7839 32 22.2578 32 20.6665C32 19.0752 32.6321 17.5491 33.7574 16.4239ZM24 28.6651C22.4005 28.6651 20.8377 29.1443 19.5132 30.041C18.2646 30.8862 17.2817 32.0658 16.6753 33.4422L16.1931 38.6665H31.8069L31.3247 33.4422C30.7183 32.0658 29.7354 30.8862 28.4868 30.041C27.1623 29.1443 25.5995 28.6651 24 28.6651ZM36 38.6665H42V36.6667C42 36.6666 42 36.6667 42 36.6667C41.9999 35.8354 41.7409 35.0247 41.2589 34.3475C40.7768 33.6702 40.0957 33.16 39.3103 32.8877C38.5249 32.6153 37.6742 32.5945 36.8763 32.828C36.4028 32.9666 35.9619 33.1907 35.5741 33.4865C35.8523 34.5015 36 35.5685 36 36.6665V38.6665ZM33.8595 29.8218C33.02 28.6129 31.9607 27.5623 30.7291 26.7285C28.7427 25.3838 26.3988 24.6651 24 24.6651C21.6012 24.6651 19.2573 25.3838 17.2709 26.7285C16.0393 27.5623 14.98 28.6129 14.1405 29.8218C13.5515 29.4655 12.9156 29.1847 12.2473 28.9891C10.6517 28.522 8.95017 28.5637 7.37933 29.1084C5.8085 29.653 4.44637 30.6735 3.4823 32.028C2.51823 33.3825 2.00012 35.0038 2 36.6664V40.6665C2 41.7711 2.89543 42.6665 4 42.6665H44C45.1046 42.6665 46 41.7711 46 40.6665V36.6665C45.9999 35.0039 45.4818 33.3825 44.5177 32.028C43.5536 30.6735 42.1915 29.653 40.6207 29.1084C39.0498 28.5637 37.3483 28.522 35.7527 28.9891C35.0844 29.1847 34.4485 29.4655 33.8595 29.8218ZM12.4259 33.4865C12.0381 33.1907 11.5972 32.9666 11.1237 32.828C10.3258 32.5945 9.47509 32.6153 8.68967 32.8877C7.90425 33.16 7.22318 33.6702 6.74115 34.3475C6.25914 35.0247 6.00009 35.8353 6 36.6665C6 36.6665 6 36.6666 6 36.6665V38.6665H12V36.6665C12 35.5685 12.1477 34.5015 12.4259 33.4865Z" fill="#25324B"/>
</svg>
