<svg width="32" height="33" viewBox="0 0 32 33" fill="none" xmlns="http://www.w3.org/2000/svg">
<circle opacity="0.1" cx="16" cy="16.6665" r="16" fill="white"/>
<path fill-rule="evenodd" clip-rule="evenodd" d="M13.744 10.7401C12.7679 10.7842 11.9219 11.023 11.2388 11.7037C10.5533 12.388 10.3176 13.2379 10.2735 14.2045C10.246 14.8078 10.0856 19.3655 10.5509 20.5607C10.8647 21.3671 11.4828 21.9871 12.296 22.3021C12.6754 22.4498 13.1086 22.5498 13.744 22.579C19.0568 22.8196 21.0262 22.6886 21.8567 20.5607C22.004 20.1819 22.1055 19.7489 22.1335 19.1146C22.3763 13.7845 22.0941 12.6292 21.1682 11.7037C20.4338 10.9706 19.5699 10.4716 13.744 10.7401ZM13.7929 21.507C13.2112 21.4808 12.8956 21.3838 12.685 21.3022C12.1552 21.0962 11.7572 20.6996 11.5526 20.1725C11.1982 19.2643 11.3158 14.9508 11.3474 14.2528C11.3784 13.5691 11.5168 12.9443 11.9989 12.4619C12.5955 11.8664 13.3663 11.5745 18.6147 11.8115C19.2996 11.8425 19.9254 11.9807 20.4087 12.4619C21.0053 13.0575 21.3012 13.8347 21.0602 19.0666C21.0339 19.6472 20.9367 19.9623 20.855 20.1725C20.315 21.5572 19.0729 21.7494 13.7929 21.507ZM18.6726 13.4803C18.6726 13.8745 18.9929 14.1951 19.3885 14.1951C19.7841 14.1951 20.105 13.8745 20.105 13.4803C20.105 13.086 19.7841 12.7657 19.3885 12.7657C18.9929 12.7657 18.6726 13.086 18.6726 13.4803ZM13.1402 16.6593C13.1402 18.3482 14.5118 19.7176 16.2038 19.7176C17.8958 19.7176 19.2674 18.3482 19.2674 16.6593C19.2674 14.9703 17.8958 13.6018 16.2038 13.6018C14.5118 13.6018 13.1402 14.9703 13.1402 16.6593ZM14.2153 16.6593C14.2153 15.5635 15.1054 14.6744 16.2038 14.6744C17.3021 14.6744 18.1923 15.5635 18.1923 16.6593C18.1923 17.7557 17.3021 18.645 16.2038 18.645C15.1054 18.645 14.2153 17.7557 14.2153 16.6593Z" fill="white"/>
</svg>
