<svg width="32" height="33" viewBox="0 0 32 33" fill="none" xmlns="http://www.w3.org/2000/svg">
<circle opacity="0.1" cx="16" cy="16.6665" r="16" fill="white"/>
<path fill-rule="evenodd" clip-rule="evenodd" d="M21.1394 21.6665H19.1408V18.167C19.1408 17.207 18.7176 16.6714 17.9587 16.6714C17.1327 16.6714 16.6426 17.2295 16.6426 18.167V21.6665H14.644V15.1665H16.6426V15.8975C16.6426 15.8975 17.2696 14.7964 18.6826 14.7964C20.0961 14.7964 21.1394 15.6596 21.1394 17.4456V21.6665ZM12.3666 14.127C11.6926 14.127 11.1465 13.576 11.1465 12.8965C11.1465 12.2175 11.6926 11.6665 12.3666 11.6665C13.0401 11.6665 13.5863 12.2175 13.5863 12.8965C13.5868 13.576 13.0401 14.127 12.3666 14.127ZM11.1465 21.6665H13.6447V15.1665H11.1465V21.6665Z" fill="white"/>
</svg>
