<svg width="48" height="49" viewBox="0 0 48 49" fill="none" xmlns="http://www.w3.org/2000/svg">
<path d="M21.9999 12.4305V39.1465C21.9993 39.9754 21.7062 40.7776 21.1722 41.4116C20.6382 42.0456 19.8976 42.4708 19.0808 42.6123C18.2641 42.7538 17.4236 42.6025 16.7074 42.1851C15.9912 41.7677 15.4453 41.1109 15.1659 40.3305L10.8719 28.0305M35.9999 26.6665C37.5912 26.6665 39.1174 26.0344 40.2426 24.9091C41.3678 23.7839 41.9999 22.2578 41.9999 20.6665C41.9999 19.0752 41.3678 17.5491 40.2426 16.4239C39.1174 15.2986 37.5912 14.6665 35.9999 14.6665V26.6665ZM10.8719 28.0325C9.17437 27.3107 7.7783 26.0246 6.91999 24.3918C6.06168 22.7591 5.79385 20.8799 6.16181 19.0723C6.52976 17.2647 7.51092 15.6398 8.93924 14.4725C10.3676 13.3052 12.1553 12.6672 13.9999 12.6665H17.6639C25.8639 12.6665 32.9139 10.1985 35.9999 6.6665V34.6665C32.9139 31.1345 25.8659 28.6665 17.6639 28.6665H13.9999C12.9252 28.6681 11.8612 28.4524 10.8719 28.0325Z" stroke="white" stroke-width="3" stroke-linecap="round" stroke-linejoin="round"/>
</svg>
