<svg width="48" height="49" viewBox="0 0 48 49" fill="none" xmlns="http://www.w3.org/2000/svg">
<path d="M19.5 34.6665L18 40.6665L16 42.6665H32L30 40.6665L28.5 34.6665H19.5ZM6 26.6665H42H6ZM10 34.6665H38C39.0609 34.6665 40.0783 34.2451 40.8284 33.4949C41.5786 32.7448 42 31.7274 42 30.6665V10.6665C42 9.60564 41.5786 8.58822 40.8284 7.83808C40.0783 7.08793 39.0609 6.6665 38 6.6665H10C8.93913 6.6665 7.92172 7.08793 7.17157 7.83808C6.42143 8.58822 6 9.60564 6 10.6665V30.6665C6 31.7274 6.42143 32.7448 7.17157 33.4949C7.92172 34.2451 8.93913 34.6665 10 34.6665Z" stroke="#4640DE" stroke-width="3" stroke-linecap="round" stroke-linejoin="round"/>
</svg>
