<svg width="32" height="33" viewBox="0 0 32 33" fill="none" xmlns="http://www.w3.org/2000/svg">
<circle opacity="0.1" cx="16" cy="16.6665" r="16" fill="white"/>
<path fill-rule="evenodd" clip-rule="evenodd" d="M13.8798 21.6665C18.4049 21.6665 20.8799 17.8187 20.8799 14.4823C20.8799 14.3727 20.8799 14.264 20.8727 14.1557C21.3542 13.7988 21.7697 13.3557 22.1001 12.8486C21.6516 13.0529 21.1749 13.1869 20.6875 13.246C21.2007 12.9303 21.5851 12.4344 21.7691 11.8492C21.2859 12.1433 20.7576 12.3509 20.2066 12.4623C19.2749 11.4457 17.7165 11.3965 16.7254 12.3527C16.0869 12.9693 15.8152 13.8886 16.0137 14.7655C14.0357 14.6633 12.1926 13.7046 10.943 12.1275C10.2901 13.2813 10.624 14.7567 11.7051 15.4976C11.3136 15.4859 10.9304 15.3777 10.5881 15.182V15.2141C10.5887 16.4159 11.4143 17.4507 12.5619 17.6888C12.1998 17.7903 11.8196 17.805 11.4515 17.7318C11.7734 18.7607 12.6974 19.4654 13.7497 19.4857C12.8785 20.1884 11.8022 20.57 10.6942 20.5688C10.4987 20.5682 10.3033 20.5564 10.1084 20.5325C11.2338 21.2733 12.5427 21.6665 13.8798 21.6647" fill="white"/>
</svg>
